<?xml version="1.0" encoding="UTF-8"?>
<svg id="Layer_1" data-name="Layer 1" xmlns="http://www.w3.org/2000/svg" viewBox="0 0 314.29 542.94">
  <path fill="#b25c36" d="M107.35,418.68c1.2-1.33,1.83-3.54,3.13-5.16,8.63-10.74,19.58-18.96,32.2-24.74l8.27-3.79c-7.35-1.61-11.89-8.07-9.03-14.46,3.05-6.81,10.17-9.5,17.26-12.29l-50.79-151.86-25.54-76.31c-8.73,2.08-1.66,1.66-11.6,3.86-2.27.5-6.08,1.7-7.19-1.47l-5.06-14.5c-5.34.77-7.88,3.02-13.26,5.14l4.9,15.11c1.1,3.39-.16,6.95-3.63,8.15-2.66.92-16.91,6.93-18.88,1.09l-12.24-36.36c-.95-2.82,1.5-5.71,4.1-6.6l48.78-16.76-7.92-23.8-26.31,8.85,4.9,14.82c.49,1.5-.8,3.86-2.24,4.36l-16.2,5.58c-2.67.92-6.6,2.48-8.97,0C8.29,93.62.49,67.17.02,61.59c-.31-3.73,3.16-6.26,6.39-7.34l45.87-15.2c-2.09-7.55-8.51-20.44-5.16-26.94,3.64-7.07,12.3-9.56,19.77-11.49,9.45-2.44,14.8,2.4,17.79,11.11l11.22,32.71,53.7,160.3,47.14,140.93c5.53-1.62,10.36-2.6,15.87-2.03,5.01.52,9.54,5.02,9.37,10.42-.09,3.01-2.36,5.31-2.76,8.22,18.92-5.44,34.8-7.08,52.95-1.29,2.69.86,4.95,1.7,7.42,3.01,16.78,8.89,25.1,21.76,30.88,39.49,2.92,8.96,4.7,17.49,3.36,27-2.95,20.96-22.3,36.13-42.53,40.93-.96,1.38.77,3.38,1.23,4.65,1.55,4.23,2.95,8.18,4.23,12.49,3.09,10.43.69,21.17-5.56,30.11-7.07,10.13-17.98,15.94-29.64,19.7-15.05,4.85-29.05,7.5-43.72-.79-19.06-10.78-18.39-34.61-21.24-34.23-7.43,1.01-12.97,6.83-33.31,4.77-16.58-1.68-31.07-14.29-37.08-29.83-1.88-4.86-4.07-9.52-5-14.5-2.59-13.72-2.99-23.79,2.04-37.2,1.13-3.02,1.88-5.47,4.09-7.91ZM169.23,484.81c9.34-2.92,17.59-7.47,24.93-14.06.67-.6,2.09-.21,2.59.09,1.86,1.12-2.6,17.11,5.55,33.74,1.93,3.95,5.34,8.06,8.98,9.78,12.79,6.06,33.28-1.32,38.26-12.58,8.66-19.58-16.97-39.61-14.96-42.39.67-.92,1.34-.46,2.39-.44,10.11.16,20.1-1.73,29.3-5.68,16.56-7.11,27.13-20.25,22.82-38.93-4.73-20.47-22.68-35.01-44.43-34.06-7.05.31-15.08,1.62-21.77,3.79,1.13,3.62,3.05,6.97,2.01,10.36-1.95,6.36-7.57,9.32-14.44,11.5,8.11,3.22,15.35,17.9,10.54,26.4s-19.72,13.13-27.01,9.21c-4.04-2.17-6.67-4.6-8.22-8.78-2.11-5.66-3.18-12.63.1-18.78-4.65,1.85-8.06,2.86-12.5,2.21-5.9-.87-10.12-5.4-10.01-12.1-2.03-.07-3.75,1.45-5.75,2.26-24.66,9.97-40.18,30.41-31.38,57.42,6.48,19.88,23.64,27.11,43.01,21.05Z"/>
</svg>