<svg width="634" height="189" viewBox="0 0 634 189" fill="none" xmlns="http://www.w3.org/2000/svg">
<path d="M232.976 18C233.028 18 233.08 18 233.134 18C233.14 18.0988 233.145 18.1975 233.151 18.2993C233.551 25.0539 236.179 30.044 241.1 34.6736C241.29 34.8383 241.482 35.0012 241.676 35.1622C242.176 35.5894 242.654 36.0407 243.134 36.4901C243.819 37.1287 244.507 37.7597 245.215 38.3724C247.26 40.1469 249.313 41.9652 251.07 44.029C251.205 44.1811 251.339 44.3331 251.477 44.4897C255.838 49.4682 258.664 55.6497 259.959 62.1224C267.344 62.1748 274.73 62.2272 282.339 62.2811C282.339 62.8573 282.339 63.4334 282.339 64.027C275.058 64.027 267.778 64.027 260.276 64.027C260.486 65.4411 260.695 66.8553 260.911 68.3122C260.986 69.2167 261.052 70.1054 261.07 71.0104C261.072 71.1248 261.075 71.2391 261.077 71.357C261.092 72.2594 261.093 73.1617 261.092 74.0643C261.092 74.3632 261.093 74.6621 261.093 74.9611C261.095 75.7749 261.095 76.5888 261.095 77.4027C261.095 78.2833 261.096 79.164 261.098 80.0447C261.099 81.5686 261.101 83.0925 261.102 84.6164C261.103 87.0268 261.107 89.4372 261.11 91.8476C261.111 92.6737 261.112 93.4997 261.114 94.3257C261.114 94.5321 261.114 94.7385 261.115 94.9511C261.118 97.2964 261.121 99.6417 261.124 101.987C261.124 102.094 261.124 102.201 261.124 102.311C261.127 104.81 261.13 107.308 261.132 109.806C261.132 109.914 261.132 110.021 261.132 110.132C261.133 110.998 261.133 111.865 261.134 112.731C261.137 116.411 261.141 120.09 261.148 123.769C261.151 125.969 261.154 128.169 261.154 130.369C261.154 131.876 261.156 133.384 261.16 134.892C261.162 135.761 261.163 136.63 261.162 137.499C261.161 138.295 261.162 139.092 261.165 139.889C261.166 140.176 261.166 140.463 261.165 140.75C261.158 143.054 261.357 145.318 262.122 147.51C262.181 147.685 262.181 147.685 262.243 147.863C263.935 152.58 267.387 156.287 271.863 158.462C274.733 159.786 277.788 160.148 280.911 160.366C280.911 160.419 280.911 160.471 280.911 160.525C277.199 160.536 273.487 160.544 269.776 160.55C268.052 160.552 266.328 160.555 264.604 160.561C263.101 160.566 261.597 160.569 260.093 160.57C259.298 160.57 258.503 160.572 257.708 160.575C256.957 160.579 256.206 160.579 255.455 160.579C255.182 160.579 254.909 160.58 254.636 160.582C251.714 160.6 248.917 160.208 246.15 159.255C245.984 159.199 245.819 159.142 245.648 159.083C241.171 157.378 237.351 153.571 235.337 149.257C235.09 148.693 234.874 148.122 234.672 147.54C234.617 147.386 234.617 147.386 234.561 147.228C233.708 144.596 233.69 141.874 233.673 139.136C233.669 138.542 233.662 137.948 233.656 137.354C233.642 136.065 233.632 134.775 233.622 133.486C233.613 132.203 233.602 130.921 233.591 129.639C233.547 124.527 233.509 119.416 233.473 114.304C233.472 114.118 233.472 114.118 233.471 113.928C233.47 113.804 233.469 113.679 233.468 113.551C233.467 113.427 233.466 113.303 233.466 113.175C233.464 112.923 233.462 112.672 233.46 112.42C233.447 110.558 233.434 108.696 233.42 106.833C233.327 94.4539 233.276 82.0752 233.293 64.027C231.093 64.027 228.893 64.027 226.627 64.027C226.628 64.6671 226.629 65.3072 226.63 65.9667C226.639 71.8494 226.646 77.7322 226.651 83.6149C226.652 84.3874 226.652 85.1599 226.653 85.9324C226.653 86.0862 226.653 86.24 226.653 86.3984C226.655 88.8817 226.659 91.365 226.663 93.8483C226.668 96.4003 226.67 98.9523 226.671 101.504C226.672 103.076 226.674 104.648 226.678 106.221C226.681 107.302 226.681 108.383 226.681 109.464C226.68 110.085 226.681 110.707 226.683 111.329C226.697 114.759 226.533 118.113 225.734 121.461C225.694 121.631 225.653 121.801 225.612 121.977C223.558 130.285 218.585 138.355 211.706 143.543C211.582 143.639 211.582 143.639 211.456 143.736C204.738 148.924 196.273 152.305 187.718 152.293C187.529 152.293 187.34 152.294 187.146 152.294C186.623 152.295 186.101 152.295 185.579 152.295C185.009 152.295 184.44 152.296 183.871 152.296C182.874 152.298 181.877 152.298 180.88 152.299C179.398 152.299 177.915 152.301 176.433 152.302C173.937 152.305 171.442 152.307 168.947 152.308C165.379 152.311 161.811 152.314 158.243 152.318C156.81 152.32 155.377 152.321 153.944 152.323C153.785 152.323 153.626 152.323 153.462 152.323C149.673 152.327 145.883 152.331 142.094 152.334C141.929 152.334 141.763 152.334 141.592 152.335C137.727 152.338 133.863 152.341 129.999 152.344C129.832 152.345 129.666 152.345 129.495 152.345C128.658 152.345 127.821 152.346 126.984 152.347C126.819 152.347 126.653 152.347 126.483 152.347C126.149 152.347 125.815 152.348 125.481 152.348C119.955 152.352 114.43 152.357 108.904 152.364C108.122 152.365 107.341 152.366 106.559 152.367C106.405 152.367 106.252 152.367 106.093 152.367C103.625 152.37 101.157 152.371 98.6885 152.373C96.204 152.374 93.7194 152.376 91.2349 152.379C89.7617 152.381 88.2886 152.383 86.8154 152.382C85.8278 152.382 84.8402 152.384 83.8527 152.386C83.2923 152.387 82.7319 152.387 82.1715 152.387C78.2936 152.383 74.4439 152.581 70.5998 153.105C70.4739 153.122 70.3481 153.139 70.2185 153.156C66.5074 153.656 62.9005 154.471 59.3303 155.605C59.1938 155.647 59.0573 155.69 58.9166 155.734C53.5146 157.443 47.407 160.512 44.6581 165.718C43.8367 167.417 43.5868 169.13 43.299 171C41.8848 171 40.4705 171 39.0134 171C38.7439 161.206 42.5474 151.363 49.1065 144.108C49.3261 143.865 49.5427 143.619 49.759 143.373C52.8952 139.838 56.7413 137.004 60.9175 134.813C61.0467 134.745 61.1758 134.677 61.3089 134.607C67.9386 131.157 74.8621 130.185 82.2497 130.189C82.676 130.188 83.1022 130.188 83.5284 130.187C84.4524 130.186 85.3764 130.186 86.3004 130.186C87.6745 130.186 89.0486 130.185 90.4226 130.183C92.5937 130.182 94.7647 130.18 96.9357 130.179C100.383 130.178 103.829 130.175 107.276 130.171C108.604 130.17 109.932 130.168 111.259 130.167C111.481 130.167 111.481 130.167 111.706 130.167C115.214 130.163 118.722 130.16 122.23 130.157C122.46 130.157 122.46 130.157 122.695 130.157C126.274 130.154 129.853 130.151 133.433 130.149C133.587 130.149 133.741 130.149 133.899 130.149C135.14 130.148 136.381 130.147 137.622 130.147C142.743 130.144 147.863 130.14 152.983 130.133C153.707 130.133 154.43 130.132 155.154 130.131C155.367 130.131 155.367 130.131 155.585 130.13C157.873 130.128 160.161 130.127 162.449 130.127C164.749 130.126 167.05 130.125 169.35 130.121C170.715 130.119 172.081 130.118 173.446 130.119C174.359 130.12 175.273 130.119 176.187 130.116C176.706 130.115 177.225 130.114 177.745 130.116C180.445 130.121 183.121 130.068 185.695 129.149C185.87 129.089 185.87 129.089 186.048 129.027C188.972 127.976 191.383 126.326 193.612 124.179C193.714 124.087 193.816 123.995 193.922 123.9C197.292 120.774 199.141 115.663 199.34 111.155C199.346 110.829 199.346 110.504 199.345 110.178C199.345 110.055 199.345 109.932 199.345 109.805C199.346 109.397 199.345 108.989 199.344 108.581C199.344 108.287 199.344 107.993 199.344 107.699C199.344 106.903 199.343 106.108 199.342 105.312C199.341 104.48 199.341 103.647 199.341 102.815C199.34 101.24 199.339 99.665 199.337 98.0901C199.336 96.2965 199.335 94.5028 199.334 92.7092C199.332 89.0208 199.329 85.3325 199.326 81.6442C199.308 81.7443 199.29 81.8445 199.272 81.9477C199.189 82.4061 199.107 82.8645 199.024 83.3229C198.982 83.5591 198.982 83.5591 198.939 83.8002C198.737 84.9158 198.507 86.0095 198.195 87.1C198.148 87.2636 198.102 87.4273 198.053 87.596C196.831 91.7209 194.868 95.7761 192.342 99.2614C192.225 99.4245 192.108 99.5875 191.988 99.7555C190.75 101.445 189.41 103.049 187.898 104.499C187.77 104.627 187.642 104.754 187.511 104.886C187.377 105.02 187.242 105.154 187.104 105.293C187.009 105.393 186.914 105.493 186.816 105.597C185.782 106.672 184.644 107.574 183.453 108.467C183.361 108.536 183.269 108.605 183.175 108.676C181.789 109.708 180.354 110.632 178.85 111.482C178.74 111.545 178.629 111.608 178.515 111.673C173.228 114.656 167.123 116.547 161.024 116.599C160.872 116.601 160.721 116.602 160.564 116.604C157.3 116.63 154.117 116.638 150.915 115.926C150.759 115.892 150.603 115.858 150.442 115.823C139.87 113.445 130.475 106.713 124.618 97.629C122.656 94.5224 121.046 91.188 119.963 87.6753C119.921 87.5398 119.879 87.4044 119.835 87.2648C118.902 84.2275 118.294 81.0172 118.217 77.8351C118.214 77.7024 118.211 77.5697 118.207 77.4329C118.026 68.7638 120.214 60.0107 125.36 52.917C125.428 52.8227 125.496 52.7284 125.565 52.6313C127.786 49.5555 130.286 46.6742 133.296 44.3465C133.499 44.1852 133.701 44.0238 133.904 43.8623C141.014 38.2457 149.69 35.2648 158.733 35.2807C159.026 35.2806 159.32 35.2805 159.613 35.2803C160.416 35.2799 161.22 35.2806 162.023 35.2814C162.89 35.2821 163.758 35.2818 164.625 35.2817C166.127 35.2816 167.628 35.2821 169.13 35.283C171.301 35.2843 173.473 35.2847 175.644 35.2849C179.167 35.2853 182.689 35.2863 186.212 35.2878C189.634 35.2893 193.056 35.2904 196.477 35.2911C196.583 35.2911 196.688 35.2911 196.797 35.2911C197.962 35.2914 199.127 35.2916 200.292 35.2918C209.07 35.2935 217.848 35.2964 226.627 35.2998C226.627 42.58 226.627 49.8602 226.627 57.361C224.521 57.3625 222.415 57.364 220.246 57.3655C213.489 57.3707 206.733 57.379 199.976 57.3892C198.925 57.3908 197.874 57.3924 196.822 57.3939C196.508 57.3944 196.508 57.3944 196.188 57.3949C192.81 57.3998 189.431 57.4025 186.053 57.4044C182.58 57.4063 179.108 57.4107 175.635 57.4173C173.497 57.4212 171.358 57.4234 169.219 57.4231C167.748 57.4231 166.277 57.4255 164.805 57.4296C163.959 57.4319 163.114 57.4332 162.268 57.4318C149.884 57.4125 135.184 59.4051 125.777 68.2924C123.816 70.3332 122.797 72.917 122.781 75.7222C122.777 75.8567 122.774 75.9912 122.771 76.1298C122.761 77.7738 123.301 79.0798 124.1 80.4935C124.177 80.6311 124.254 80.7687 124.334 80.9105C127.781 86.9584 133.661 90.1076 140.238 91.9369C144.965 93.2029 149.838 94.0205 154.724 94.3413C154.877 94.3519 155.029 94.3626 155.186 94.3735C165.268 95.0356 176.752 93.4816 185.676 88.6276C185.952 88.4818 185.952 88.4818 186.235 88.3331C189.981 86.2919 193.278 83.4956 194.744 79.3955C195.576 76.4041 195.299 73.1201 193.834 70.3755C192.695 68.5034 191.217 67.2235 189.485 65.9315C189.35 65.8293 189.35 65.8293 189.213 65.7249C187.625 64.5195 185.833 63.2329 183.93 62.5985C183.93 62.4938 183.93 62.389 183.93 62.2811C200.167 62.2811 216.405 62.2811 233.134 62.2811C233.082 54.6867 233.03 47.0922 232.976 39.2676C232.958 31.5368 232.958 31.5368 232.965 27.8286C232.966 26.8123 232.967 25.7961 232.968 24.7799C232.969 22.5199 232.972 20.26 232.976 18Z" fill="#E2C072"/>
<path d="M438.416 81.8137C438.468 81.8137 438.521 81.8137 438.574 81.8137C438.6 82.0166 438.625 82.2195 438.651 82.4286C439.082 85.7067 440.051 88.1062 442.376 90.5235C442.478 90.6325 442.581 90.7415 442.687 90.8538C443.382 91.5735 444.132 92.2056 444.911 92.8327C446.816 94.3718 448.709 95.9344 450.295 97.808C450.802 97.709 451.15 97.5333 451.577 97.2451C451.702 97.1617 451.828 97.0783 451.957 96.9923C452.091 96.9022 452.225 96.8121 452.363 96.7193C458.431 92.7193 465.574 89.1397 473.003 89.0605C473.125 89.059 473.247 89.0574 473.372 89.0558C481.787 88.9699 488.657 91.7859 494.7 97.6695C495.475 98.464 496.172 99.3114 496.858 100.183C496.983 100.338 497.109 100.492 497.238 100.651C502.922 107.787 504.665 116.011 505.41 124.888C505.421 125.015 505.432 125.143 505.443 125.274C505.501 125.989 505.537 126.705 505.569 127.421C505.575 127.552 505.581 127.683 505.587 127.817C505.719 130.74 505.745 133.662 505.761 136.588C505.763 136.991 505.765 137.393 505.767 137.796C505.777 139.468 505.786 141.139 505.791 142.811C505.794 143.845 505.8 144.88 505.807 145.914C505.809 146.304 505.81 146.694 505.811 147.084C505.812 147.628 505.815 148.171 505.82 148.715C505.819 148.873 505.819 149.03 505.818 149.192C505.837 150.78 506.192 152.292 506.915 153.709C506.996 153.868 506.996 153.868 507.078 154.031C507.671 155.145 508.465 156.008 509.37 156.876C509.468 156.973 509.565 157.07 509.666 157.171C511.854 159.206 514.772 159.66 517.606 160.043C517.606 160.096 517.606 160.148 517.606 160.202C516.129 160.205 514.653 160.208 513.176 160.21C512.49 160.211 511.804 160.212 511.118 160.214C508.396 160.221 505.674 160.221 502.953 160.151C502.728 160.145 502.502 160.139 502.277 160.134C498.286 160.043 494.999 159.078 492.166 156.154C490.09 153.758 489.394 150.862 489.387 147.762C489.386 147.563 489.385 147.365 489.383 147.16C489.381 146.729 489.379 146.298 489.378 145.867C489.375 145.18 489.371 144.493 489.367 143.805C489.356 141.851 489.347 139.896 489.339 137.941C489.334 136.861 489.328 135.781 489.322 134.7C489.318 134.132 489.315 133.563 489.314 132.995C489.307 130.551 489.254 128.114 489.111 125.674C489.105 125.564 489.098 125.455 489.092 125.342C488.539 115.907 486.367 105.014 479.056 98.345C475.284 95.0622 470.466 93.6161 465.501 93.8831C460.898 94.2204 455.07 95.8332 451.403 98.7582C451.403 99.289 451.771 99.6948 452.047 100.134C455.069 105.094 455.702 110.549 455.704 116.259C455.705 116.619 455.706 116.979 455.707 117.339C455.709 118.111 455.71 118.883 455.711 119.655C455.713 120.878 455.716 122.101 455.719 123.324C455.721 123.743 455.722 124.163 455.723 124.583C455.723 124.688 455.723 124.792 455.724 124.9C455.727 126.091 455.73 127.281 455.733 128.471C455.733 128.58 455.733 128.688 455.734 128.8C455.738 130.561 455.741 132.321 455.743 134.081C455.746 135.893 455.751 137.706 455.757 139.519C455.76 140.534 455.763 141.55 455.763 142.565C455.763 143.521 455.766 144.476 455.77 145.432C455.771 145.781 455.772 146.13 455.771 146.479C455.766 150.538 456.427 153.698 459.302 156.767C461.651 159.008 464.603 159.647 467.716 160.043C467.716 160.096 467.716 160.148 467.716 160.202C465.55 160.209 463.385 160.215 461.219 160.218C460.213 160.22 459.207 160.222 458.201 160.226C457.229 160.229 456.256 160.231 455.284 160.232C454.914 160.232 454.545 160.233 454.176 160.235C449.488 160.256 445.579 159.777 442.03 156.388C439.083 153.298 438.878 149.448 438.854 145.415C438.852 145.162 438.85 144.909 438.848 144.656C438.842 143.968 438.837 143.28 438.833 142.592C438.827 141.847 438.821 141.102 438.816 140.357C438.804 138.9 438.793 137.443 438.783 135.985C438.771 134.284 438.758 132.583 438.745 130.881C438.721 127.841 438.699 124.802 438.676 121.762C438.655 118.822 438.633 115.881 438.61 112.941C438.609 112.76 438.608 112.58 438.606 112.393C438.601 111.666 438.595 110.939 438.59 110.212C438.567 107.229 438.544 104.246 438.522 101.262C438.517 100.586 438.512 99.9093 438.507 99.2328C438.493 97.4529 438.48 95.6731 438.467 93.8932C438.462 93.1582 438.456 92.4231 438.451 91.6881C438.426 88.3966 438.409 85.1054 438.416 81.8137Z" fill="#E2C072"/>
<path d="M357.686 81.8137C358 82.3938 358.069 82.8673 358.134 83.526C358.636 87.7786 361.438 90.6541 364.669 93.2057C364.86 93.3557 364.86 93.3557 365.056 93.5088C366.616 94.7481 368.074 96.0652 369.463 97.4913C369.622 97.65 369.781 97.8085 369.941 97.9664C370.072 97.865 370.072 97.865 370.206 97.7616C377.112 92.5943 385.506 89.0645 394.201 89.029C394.327 89.028 394.453 89.027 394.582 89.0259C397.015 89.0138 399.375 89.3184 401.711 90.0088C401.851 90.0495 401.99 90.0901 402.134 90.132C403.445 90.5273 404.679 91.0337 405.909 91.632C406.015 91.6823 406.122 91.7326 406.231 91.7845C409.196 93.1959 411.7 95.1999 414.025 97.4913C414.121 97.5848 414.217 97.6783 414.316 97.7747C424.169 107.456 425.267 121.225 425.363 134.237C425.364 134.406 425.365 134.575 425.367 134.749C425.37 135.295 425.374 135.84 425.379 136.385C425.39 137.737 425.399 139.088 425.409 140.439C425.417 141.59 425.426 142.742 425.435 143.893C425.439 144.424 425.443 144.955 425.446 145.486C425.457 146.991 425.478 148.496 425.547 150C425.551 150.118 425.556 150.237 425.561 150.36C425.701 152.991 427.265 155.345 429.142 157.118C431.515 159.052 434.293 159.648 437.261 160.043C437.261 160.096 437.261 160.148 437.261 160.202C435.778 160.205 434.294 160.208 432.811 160.21C432.121 160.211 431.431 160.212 430.742 160.214C428.007 160.221 425.272 160.221 422.538 160.151C422.311 160.145 422.084 160.139 421.858 160.134C417.96 160.045 414.684 159.165 411.891 156.328C409.662 153.794 408.912 150.85 408.905 147.555C408.903 147.242 408.902 146.929 408.9 146.617C408.898 146.282 408.897 145.946 408.896 145.611C408.893 144.907 408.89 144.202 408.886 143.498C408.874 141.494 408.865 139.49 408.857 137.487C408.852 136.38 408.846 135.272 408.84 134.165C408.836 133.582 408.833 132.999 408.832 132.416C408.825 130.003 408.779 127.597 408.628 125.188C408.615 124.986 408.603 124.785 408.59 124.577C407.973 115.494 405.804 106.033 399.384 99.2333C399.298 99.1381 399.213 99.043 399.125 98.945C396.031 95.6355 391.349 94.0544 386.919 93.8609C381.19 93.7044 375.32 95.8069 370.577 98.9165C370.666 99.0454 370.754 99.1742 370.846 99.3069C373.793 103.673 375.062 108.736 375.055 113.977C375.056 114.129 375.056 114.28 375.057 114.435C375.058 114.937 375.058 115.438 375.059 115.939C375.059 116.3 375.06 116.662 375.061 117.023C375.063 117.799 375.064 118.575 375.065 119.351C375.067 120.58 375.07 121.809 375.074 123.038C375.075 123.459 375.076 123.881 375.077 124.302C375.077 124.408 375.078 124.513 375.078 124.622C375.081 125.818 375.084 127.014 375.087 128.21C375.087 128.319 375.088 128.429 375.088 128.541C375.092 130.31 375.095 132.079 375.098 133.848C375.101 135.669 375.105 137.49 375.111 139.311C375.115 140.332 375.117 141.352 375.117 142.373C375.118 143.333 375.12 144.293 375.125 145.254C375.126 145.604 375.126 145.955 375.125 146.306C375.12 150.33 375.804 153.762 378.718 156.755C381.107 159.058 384.101 159.671 387.288 160.043C387.288 160.096 387.288 160.148 387.288 160.202C385.091 160.209 382.894 160.215 380.697 160.218C379.676 160.22 378.656 160.222 377.635 160.226C376.649 160.229 375.662 160.231 374.676 160.232C374.301 160.232 373.927 160.233 373.552 160.235C369.035 160.255 365.025 159.858 361.585 156.638C359.228 154.293 358.316 151.393 358.23 148.163C358.224 147.957 358.218 147.751 358.211 147.538C358.136 144.873 358.122 142.207 358.105 139.541C358.099 138.763 358.093 137.985 358.087 137.207C358.077 135.866 358.068 134.524 358.058 133.182C358.045 131.242 358.03 129.303 358.016 127.363C357.993 124.214 357.97 121.066 357.947 117.917C357.926 114.862 357.904 111.807 357.881 108.751C357.88 108.563 357.878 108.374 357.877 108.179C357.87 107.231 357.863 106.283 357.856 105.335C357.799 97.4949 357.742 89.6543 357.686 81.8137Z" fill="#E2C072"/>
<path d="M575.216 98.172C579.349 101.97 581.989 107.319 582.417 112.888C582.438 113.424 582.44 113.96 582.439 114.497C582.44 114.651 582.44 114.805 582.441 114.964C582.442 115.476 582.442 115.988 582.442 116.499C582.443 116.868 582.444 117.237 582.445 117.606C582.447 118.398 582.448 119.19 582.449 119.982C582.451 121.236 582.454 122.491 582.457 123.745C582.459 124.175 582.46 124.605 582.461 125.035C582.461 125.142 582.462 125.25 582.462 125.36C582.465 126.581 582.468 127.802 582.471 129.023C582.471 129.135 582.472 129.246 582.472 129.361C582.476 131.167 582.479 132.972 582.482 134.778C582.484 136.636 582.489 138.495 582.495 140.353C582.498 141.395 582.501 142.436 582.501 143.478C582.502 144.458 582.504 145.438 582.508 146.418C582.509 146.777 582.51 147.135 582.509 147.494C582.504 151.481 583.211 154.559 586.012 157.562C588.35 159.834 591.364 160.463 594.49 160.773C594.49 160.825 594.49 160.877 594.49 160.931C592.17 160.942 589.85 160.951 587.53 160.956C586.453 160.958 585.375 160.961 584.298 160.967C583.256 160.972 582.215 160.975 581.174 160.976C580.778 160.977 580.382 160.979 579.987 160.981C576.246 161.005 573.134 160.689 570.027 158.403C569.925 158.33 569.822 158.257 569.717 158.183C567.427 156.415 566.06 153.501 565.655 150.717C565.569 150.019 565.559 149.333 565.565 148.63C565.566 148.489 565.566 148.348 565.567 148.203C565.578 146.138 565.609 144.073 565.638 142.008C565.649 141.216 565.66 140.424 565.67 139.633C565.7 137.383 565.73 135.134 565.761 132.885C565.784 131.234 565.806 129.583 565.828 127.932C565.829 127.798 565.831 127.663 565.833 127.524C565.901 122.224 565.917 116.924 565.897 111.624C565.832 111.732 565.768 111.841 565.701 111.953C565.573 112.167 565.573 112.167 565.442 112.386C565.358 112.527 565.274 112.669 565.187 112.814C564.723 113.558 564.128 114.162 563.514 114.784C563.401 114.901 563.287 115.018 563.17 115.139C560.384 117.82 556.571 119.213 552.979 120.449C551.205 121.059 549.472 121.698 547.788 122.528C547.678 122.581 547.568 122.634 547.455 122.689C541.484 125.588 536.709 130.335 534.445 136.593C533.304 140.242 533.543 144.036 535.293 147.437C535.881 148.477 536.625 149.336 537.463 150.185C537.549 150.272 537.635 150.36 537.724 150.45C540.534 153.063 544.609 153.851 548.314 153.849C548.51 153.849 548.705 153.849 548.906 153.849C550.51 153.84 552.078 153.721 553.666 153.503C553.294 153.918 552.927 154.132 552.423 154.366C552.266 154.44 552.108 154.513 551.945 154.589C551.686 154.707 551.686 154.707 551.422 154.827C551.15 154.951 551.15 154.951 550.872 155.077C544.011 158.171 536.534 160.956 528.925 161C528.732 161.002 528.54 161.003 528.341 161.005C525.487 160.977 522.686 160.206 520.555 158.244C517.549 155.087 516.373 151.075 516.456 146.801C516.68 140.338 520.384 134.653 524.926 130.27C525.232 129.997 525.547 129.739 525.867 129.482C526.038 129.34 526.208 129.198 526.379 129.056C533.915 122.851 543.589 119.848 553.139 118.478C557.037 117.915 560.958 116.17 563.395 113.006C565.558 109.894 565.833 106.573 565.262 102.932C564.74 100.165 563.666 96.6437 561.374 94.8217C557.87 92.4964 553.317 91.7673 549.198 92.5308C546.433 93.1902 543.951 94.3388 541.752 96.136C541.617 96.2446 541.481 96.3532 541.342 96.465C537.545 99.6714 535.281 104.709 534.762 109.569C533.741 109.472 532.828 109.16 531.862 108.825C531.692 108.766 531.522 108.708 531.347 108.648C530.99 108.525 530.633 108.401 530.276 108.277C529.73 108.088 529.183 107.901 528.635 107.713C528.288 107.593 527.94 107.473 527.593 107.353C527.429 107.297 527.266 107.241 527.097 107.184C526.945 107.131 526.793 107.077 526.636 107.022C526.502 106.976 526.369 106.93 526.231 106.882C525.848 106.716 525.555 106.512 525.232 106.25C526.005 103.706 527.328 101.8 529.203 99.9289C529.329 99.7997 529.455 99.6706 529.585 99.5375C540.004 89.4667 561.029 87.5348 575.216 98.172Z" fill="#E2C072"/>
<path d="M341.836 98.1871C345.552 101.71 348.707 106.868 348.934 112.082C348.94 112.483 348.942 112.884 348.942 113.285C348.942 113.439 348.943 113.592 348.943 113.75C348.945 114.262 348.946 114.774 348.946 115.287C348.947 115.655 348.948 116.023 348.949 116.39C348.952 117.182 348.954 117.974 348.955 118.766C348.957 119.914 348.961 121.061 348.964 122.209C348.97 124.074 348.976 125.939 348.981 127.805C348.981 127.916 348.982 128.028 348.982 128.143C348.986 129.723 348.99 131.304 348.994 132.885C348.994 132.996 348.994 133.107 348.994 133.222C348.995 133.388 348.995 133.388 348.995 133.558C348.999 135.415 349.005 137.272 349.011 139.129C349.016 140.374 349.018 141.618 349.02 142.863C349.022 143.64 349.024 144.417 349.027 145.194C349.029 145.552 349.029 145.91 349.029 146.269C349.031 150.386 349.388 154.155 352.452 157.242C354.957 159.646 357.775 160.346 361.146 160.659C361.146 160.711 361.146 160.763 361.146 160.817C358.814 160.832 356.483 160.843 354.151 160.85C353.068 160.853 351.985 160.857 350.902 160.865C349.855 160.872 348.808 160.875 347.761 160.877C347.363 160.878 346.966 160.88 346.569 160.884C342.137 160.921 338.619 160.301 335.354 157.129C333.155 154.834 332.184 152.037 332.209 148.905C332.209 148.667 332.209 148.667 332.209 148.425C332.209 147.893 332.212 147.362 332.215 146.83C332.217 146.443 332.218 146.056 332.219 145.669C332.239 140.374 332.319 135.08 332.392 129.786C332.421 127.694 332.45 125.602 332.477 123.51C332.488 122.735 332.498 121.96 332.509 121.185C332.555 117.93 332.572 114.676 332.563 111.421C332.499 111.54 332.435 111.658 332.37 111.781C332.285 111.937 332.201 112.093 332.114 112.254C332.03 112.408 331.947 112.563 331.861 112.722C331.54 113.278 331.173 113.733 330.727 114.192C330.645 114.278 330.563 114.364 330.478 114.452C327.335 117.656 323.03 119.264 318.847 120.673C314.342 122.192 310.293 124.387 306.838 127.676C306.689 127.813 306.539 127.949 306.385 128.09C302.871 131.372 300.497 136.108 300.328 140.921C300.282 144.389 301.549 147.584 303.98 150.086C307.778 153.447 312.463 153.917 317.319 153.715C318.277 153.65 319.227 153.541 320.177 153.4C319.611 154.019 318.893 154.299 318.142 154.652C317.981 154.728 317.821 154.804 317.655 154.882C312.484 157.278 307.032 159.203 301.439 160.344C301.219 160.389 301.219 160.389 300.994 160.435C297.129 161.188 292.107 161.525 288.663 159.302C285.531 156.971 283.745 153.574 283.178 149.77C283.027 147.197 283.07 144.674 283.813 142.195C283.86 142.031 283.86 142.031 283.909 141.863C285.484 136.524 289.264 131.824 293.658 128.465C293.743 128.399 293.828 128.334 293.915 128.266C295.594 126.974 297.377 125.885 299.216 124.835C299.368 124.747 299.368 124.747 299.523 124.657C305.11 121.439 311.558 119.806 317.874 118.749C322.389 117.991 327 116.901 329.933 113.088C332.081 109.905 332.554 106.491 331.835 102.759C331.581 101.568 331.222 100.416 330.816 99.269C330.758 99.1018 330.699 98.9346 330.639 98.7623C329.982 97.0468 328.965 95.3048 327.323 94.3767C327.08 94.2388 327.08 94.2388 326.833 94.0981C325.497 93.3881 324.202 92.9638 322.718 92.6408C322.572 92.6052 322.427 92.5696 322.278 92.5329C317.982 91.6264 313.47 92.6491 309.81 94.9798C308.974 95.5505 308.221 96.223 307.473 96.9018C307.315 97.0425 307.315 97.0425 307.153 97.186C303.708 100.41 302.033 104.996 301.28 109.527C300.16 109.302 299.097 108.983 298.015 108.616C297.76 108.529 297.76 108.529 297.499 108.441C297.142 108.32 296.785 108.198 296.428 108.076C295.879 107.889 295.33 107.706 294.78 107.522C294.433 107.404 294.085 107.285 293.738 107.166C293.49 107.084 293.49 107.084 293.238 107.001C293.087 106.948 292.936 106.896 292.78 106.841C292.58 106.773 292.58 106.773 292.375 106.704C292.07 106.529 292.07 106.529 291.939 106.219C291.823 104.865 293.193 102.882 294.015 101.865C294.508 101.293 295.034 100.755 295.564 100.216C295.678 100.093 295.792 99.9693 295.91 99.8423C305.438 89.8017 325.088 88.1248 341.836 98.1871Z" fill="#E2C072"/>
</svg>
