<svg width="199" height="17" viewBox="0 0 199 17" fill="none" xmlns="http://www.w3.org/2000/svg">
<path d="M6 7.96003C8.73423 7.98599 15.1794 8.11333 19.4337 8.95819C23.5673 9.77909 30.9469 8.59425 36.2287 7.52645C38.6378 7.03942 41.3939 7.05359 43.8852 7.2656C47.5931 7.58113 49.3979 8.29101 51.0294 8.36453C52.6261 8.43648 54.7206 9.3745 56.4845 9.88825C57.9093 10.3032 61.7826 9.43562 66.5229 9.34265C69.6725 9.28087 73.9144 9.76921 78.7845 9.26704C84.4568 8.68217 88.7877 7.36329 91.4806 7.11864C96.6659 6.64756 101.388 7.70475 105.831 8.10165C109.544 8.43339 115.145 7.858 121.03 7.4176C123.739 7.21491 125.946 7.24852 129.47 7.2538C137.786 7.26627 143.31 7.39469 144.441 7.62355C145.611 7.86025 146.474 8.25685 147.963 8.36881C154.299 8.84551 159.832 7.34176 160.491 7.47502C161.261 7.63065 161.607 8.03396 162.803 8.15199C167.831 8.64806 171.447 7.78798 175.558 7.98356C178.34 8.02045 183.41 8.02294 186.742 7.99794C190.074 7.97295 191.515 7.92039 193 7.86623" stroke="#E2C072" stroke-width="3" stroke-linecap="round"/>
</svg>
